<svg id="SvgjsSvg1001" width="288" height="288" xmlns="http://www.w3.org/2000/svg" version="1.1" xmlns:xlink="http://www.w3.org/1999/xlink" xmlns:svgjs="http://svgjs.com/svgjs"><defs id="SvgjsDefs1002"></defs><g id="SvgjsG1008" transform="matrix(0.9167,0,0,0.9167,11.995200000000011,11.995200000000011)"><svg xmlns="http://www.w3.org/2000/svg" enable-background="new 0 0 463 463" viewBox="0 0 463 463" width="288" height="288"><path d="M351.999,341.253c-0.027-0.039-0.045-0.081-0.072-0.119l-19.328-27c-0.87-1.214-2.082-2.142-3.482-2.663l-33.083-12.316
		c-53.456-43.167-70.572-84.077-80.235-118.436c-2.605-9.264-7.074-16.558-12.477-22.263l-0.021-7.615
		c-0.005-0.417,0.163-0.755,0.498-1.003c0.337-0.248,0.705-0.312,1.107-0.185l11.373,3.606c3.629,1.151,7.543-0.6,9.105-4.069
		c16.97-37.686,1.646-85.042,0.985-87.04c-0.874-2.64-3.136-4.58-5.878-5.041c-42.771-7.194-74.929,22.563-76.276,23.833
		c-2.317,2.184-3.003,5.592-1.711,8.502l15.824,35.645v15.074c-1.867,0.382-3.543,1.455-4.654,3.05
		c-1.662,2.386-40.28,59.303-19.441,154.639c-0.729,6.893-2.567,36.382,16.412,53.622c-2.362,2.023-5.513,3.686-10.333,4.68
		c-15.398,3.178-22.995,14.518-20.321,30.335c1.421,8.408,8.657,14.51,17.206,14.51h4.631c4.143,0,7.5-3.358,7.5-7.5
		s-3.357-7.5-7.5-7.5h-4.631c-1.043,0-1.943-0.636-2.293-1.564c0.104-0.293,0.197-0.592,0.265-0.902
		c0.777-0.292,3.285-0.869,9.731,0.104c6.054,0.915,13.14,2.807,19.992,4.637c2.873,0.767,5.666,1.512,8.321,2.169l-2.409,6.423
		c-0.863,2.303-0.543,4.883,0.858,6.905c1.4,2.022,3.704,3.228,6.164,3.228c21.742,0,58.94-0.633,92.223-2.418
		c63.767-3.42,71.074-8.746,74.194-11.021c21.96-16.004,14.802-41.031,7.948-52.028
		C352.133,341.436,352.063,341.347,351.999,341.253z M327.894,333.331l-5.092-1.261c-2.406-0.596-4.876-0.792-7.35-0.58
		l-4.491,0.385l-20.347-8.138l4.989-8.736l26.132,9.728L327.894,333.331z M214.118,136.839l-4.679-1.483
		c-4.953-1.571-10.396-0.662-14.567,2.427c-3.212,2.378-5.402,5.857-6.216,9.673c-5.152-2.709-10.423-4.556-15.328-5.731V123.5
		c0-1.048-0.22-2.085-0.646-3.043l-1.715-3.863c2.607-2.369,20.036-17.372,46.725-21.257
		C218.922,107.953,218.719,123.031,214.118,136.839z M213.398,71.296c0.611,2.317,1.368,5.459,2.105,9.2
		c-25.133,3.653-42.987,15.57-50.874,21.82l-6.107-13.757C166.959,82.15,187.844,68.861,213.398,71.296z M149.983,189.971
		c4.704-17.275,10.704-29.138,13.852-34.657c9.092,1.119,30.986,6.225,37.523,29.467c10.058,35.762,27.64,78.155,81.23,122.762
		l-5.926,10.376c-16.604-7.911-65.305-35.217-98.241-95.993c-1.358-2.506-3.937-3.928-6.601-3.928c-1.207,0-2.431,0.292-3.566,0.908
		c-3.642,1.973-4.994,6.525-3.021,10.167c10.529,19.429,22.479,35.617,34.553,48.996c-23.049,0.127-41.974,5.433-52.42,9.141
		C139.364,244.642,144.23,211.101,149.983,189.971z M168.764,373.782c-6.728-1.797-13.305-3.552-19.373-4.628
		c11.019-3.927,15.795-10.978,19.102-15.887c0.911-1.353,2.288-3.397,2.86-3.712c1.437-0.207,7.196,5.785,11.207,15.968
		l-4.04,10.773C175.531,375.589,172.207,374.702,168.764,373.782z M335.426,381.428c-1.251,0.844-10.349,5.205-66.692,8.203
		c-27.832,1.481-58.371,2.153-80.065,2.324l12.682-33.818c8.494-1.225,32.38-3.486,80.128-0.154c4.158,0.28,7.716-2.828,8.004-6.96
		c0.289-4.132-2.827-7.715-6.959-8.004c-64.956-4.532-87.607,0.976-88.539,1.212c-1.728,0.438-3.214,1.476-4.232,2.888
		c-6.192-9.253-13.068-13.445-20.448-12.423c-4.159,0.573-7.057,2.594-9.307,4.996c-10.958-10.736-11.466-28.926-11.077-37.029
		c9.518-3.693,35.604-12.21,66.49-8.784c31.144,28.772,59.334,39.726,61.719,40.62l29.914,11.966
		c1.087,0.435,2.257,0.608,3.426,0.509l6.265-0.537c0.83-0.072,1.655-0.005,2.461,0.194l21.617,5.354
		C343.64,357.86,348.438,371.945,335.426,381.428z" fill="#ff9800" class="color000 svgShape"></path><path d="M395.195,67.805C351.471,24.08,293.336,0,231.5,0S111.529,24.08,67.805,67.805S0,169.664,0,231.5
		s24.08,119.971,67.805,163.695S169.664,463,231.5,463s119.971-24.08,163.695-67.805S463,293.336,463,231.5
		S438.92,111.529,395.195,67.805z M384.589,384.589C343.697,425.48,289.329,448,231.5,448s-112.197-22.52-153.089-63.411
		C37.52,343.697,15,289.329,15,231.5S37.52,119.303,78.411,78.411C119.303,37.52,173.671,15,231.5,15s112.197,22.52,153.089,63.411
		C425.48,119.303,448,173.671,448,231.5S425.48,343.697,384.589,384.589z" fill="#ff9800" class="color000 svgShape"></path></svg></g></svg>